<?xml version="1.0" encoding="utf-8"?>
<!-- Generator: Adobe Illustrator 25.0.0, SVG Export Plug-In . SVG Version: 6.00 Build 0)  -->
<svg version="1.1" id="Camada_1" xmlns="http://www.w3.org/2000/svg" xmlns:xlink="http://www.w3.org/1999/xlink" x="0px" y="0px"
	 viewBox="0 0 48 48" style="enable-background:new 0 0 48 48;" xml:space="preserve">
<style type="text/css">
	.st0{fill:none;stroke:#000000;stroke-width:0.762;stroke-miterlimit:10;}
</style>
<path class="st0" d="M218.6,22.1"/>
<path d="M27.6,15.7c0,3.9-1.4,7.2-4.2,10c-2.8,2.8-6.2,4.1-10.1,4.1c-1.2,0-2.1-0.4-2.8-1.1C10,28,9.6,27.2,9.6,26.2
	s0.3-1.8,0.9-2.5c0.7-0.8,1.6-1.1,2.8-1.1c1.9,0,3.6-0.7,4.9-2c1.4-1.3,2-3,2-4.8c0-1.9-0.7-3.5-2-4.9s-3-2-4.9-2H8.8v17.4
	c0,1.1-0.4,2.1-1.2,2.7c-0.7,0.6-1.5,0.9-2.5,0.9s-1.8-0.3-2.5-0.9c-0.8-0.7-1.2-1.6-1.2-2.7V1.5l11.8,0c3.9,0,7.3,1.4,10.1,4.1
	C26.2,8.4,27.6,11.7,27.6,15.7z"/>
<path d="M46.5,42.9c0,1.1-0.4,2-1.1,2.7c-0.7,0.6-1.6,1-2.6,1c-1,0-1.8-0.3-2.5-0.9c-0.8-0.7-1.2-1.6-1.2-2.7V27.9
	c0-0.7-0.2-1.3-0.7-1.7c-0.5-0.5-1.1-0.7-1.8-0.7c-0.7,0-1.3,0.2-1.8,0.7c-0.5,0.5-0.8,1.1-0.8,1.8v9.5c0,1.1-0.4,2-1.1,2.7
	c-0.7,0.6-1.6,1-2.6,1c-1,0-1.8-0.3-2.5-0.9c-0.8-0.7-1.2-1.6-1.2-2.7V28c0-0.7-0.2-1.3-0.7-1.8c-0.5-0.5-1.1-0.7-1.8-0.7
	c-0.7,0-1.3,0.2-1.8,0.7c-0.5,0.5-0.7,1.1-0.7,1.7v14.9c0,1.1-0.4,2-1.1,2.7c-0.7,0.6-1.6,1-2.6,1c-1,0-1.9-0.3-2.6-1
	c-0.7-0.6-1.1-1.5-1.1-2.7V28c0-2.7,1-5,2.9-6.9c1.9-1.9,4.2-2.9,7-2.9c2.3,0,4.4,0.7,6.2,2.2c1.8-1.5,3.9-2.2,6.2-2.2
	c2.7,0,5,1,6.9,2.9s2.9,4.2,2.9,6.9L46.5,42.9L46.5,42.9z"/>
</svg>
