<?xml version="1.0" encoding="utf-8"?>
<!-- Generator: Adobe Illustrator 25.0.0, SVG Export Plug-In . SVG Version: 6.00 Build 0)  -->
<svg version="1.1" id="Camada_1" xmlns="http://www.w3.org/2000/svg" xmlns:xlink="http://www.w3.org/1999/xlink" x="0px" y="0px"
	 viewBox="0 0 1100 323" style="enable-background:new 0 0 1100 323;" xml:space="preserve">
<style type="text/css">
	.st0{fill:#353A6B;}
	.st1{fill:#4315AA;}
</style>
<g>
	<path class="st0" d="M62,303.1c-18-8.2-32.8-20.7-44.3-37.5S0.4,228.2,0.4,203.9v-162c0-5.2,1.8-9.6,5.3-13.3
		c3.6-3.7,7.9-5.5,13.1-5.5s9.6,1.8,13.3,5.5s5.5,8.1,5.5,13.3v163.2c0,16.4,3.8,30.3,11.3,41.8s17.4,20.1,29.7,25.8
		c12.3,5.7,25.4,8.6,39.4,8.6s27.1-2.9,39.4-8.6s22.2-14.4,29.7-25.8c7.5-11.5,11.3-25.4,11.3-41.8V41.9c0-5.2,1.8-9.6,5.3-13.3
		c3.6-3.7,7.9-5.5,13.1-5.5c5.2,0,9.6,1.8,13.3,5.5s5.5,8.1,5.5,13.3v162c0,24.3-5.7,44.9-17.2,61.7c-11.5,16.8-26.2,29.3-44.3,37.5
		c-18,8.2-36.8,12.3-56.2,12.3C98.7,315.4,80,311.3,62,303.1z"/>
	<path class="st0" d="M335.5,303.9c-15.9-9-28.1-21.8-36.7-38.3s-12.9-35.5-12.9-56.8s4.3-40.3,12.9-56.8s20.8-29.3,36.7-38.3
		c15.9-9,34.3-13.5,55.4-13.5c20.8,0,39.1,4.5,55,13.5s28.2,21.8,36.9,38.3c8.7,16.5,13.1,35.5,13.1,56.8s-4.4,40.3-13.1,56.8
		c-8.8,16.5-21.1,29.3-36.9,38.3c-15.9,9-34.2,13.5-55,13.5C369.8,317.4,351.4,312.9,335.5,303.9z M423.1,275.6
		c10.3-5.2,18.7-13.4,25.4-24.6c6.7-11.2,10-25.4,10-42.7c0-17-3.4-31-10-42.2c-6.7-11.2-15.2-19.3-25.4-24.4
		c-10.3-5.1-21-7.6-32.2-7.6c-11.5,0-22.4,2.5-32.6,7.6c-10.3,5.1-18.7,13.2-25.2,24.4c-6.6,11.2-9.8,25.3-9.8,42.2
		c0,17.2,3.3,31.4,9.8,42.7c6.6,11.2,15,19.4,25.2,24.6c10.3,5.2,21.1,7.8,32.6,7.8C402.1,283.4,412.8,280.8,423.1,275.6z"/>
	<path class="st0" d="M545.2,306c-3.6-3.6-5.3-7.9-5.3-13.1V26.7c0-5.2,1.8-9.6,5.3-13.3c3.6-3.7,7.9-5.5,13.1-5.5
		c5.5,0,10,1.8,13.5,5.3c3.6,3.6,5.3,8.1,5.3,13.5v266.2c0,5.2-1.8,9.6-5.5,13.1s-8.1,5.3-13.3,5.3
		C553.2,311.4,548.8,309.6,545.2,306z"/>
	<path class="st1" d="M655.4,308c-3.6-3.6-5.3-7.9-5.3-13.1V28.7c0-5.2,1.8-9.6,5.3-13.3c3.6-3.7,7.9-5.5,13.1-5.5
		c5.5,0,10,1.8,13.5,5.3c3.6,3.6,5.3,8.1,5.3,13.5v266.2c0,5.2-1.8,9.6-5.5,13.1s-8.1,5.3-13.3,5.3C663.3,313.4,659,311.6,655.4,308
		z"/>
	<path class="st1" d="M767.6,286.9c-18.7-19-28.1-45.7-28.1-80.2c0-19.4,3.6-37.3,10.7-53.7c7.1-16.4,18-29.7,32.8-39.8
		S815.9,98,837.5,98c20.2,0,37.7,4.7,52.5,14.1s26,22,33.6,37.7c7.7,15.7,11.5,32.9,11.5,51.5c0,5.2-1.7,9.6-5.1,13.1
		c-3.4,3.6-8,5.3-13.7,5.3h-139c2.2,19.1,9.3,34,21.3,44.7s28.8,16,50.4,16c11.5,0,21.5-1.1,30.1-3.3c8.6-2.2,17-5.3,25.2-9.4
		c2.2-1.1,4.6-1.6,7.4-1.6c4.4,0,8.2,1.5,11.5,4.5s4.9,6.8,4.9,11.5c0,6-3.6,11.1-10.7,15.2c-10.7,6-21.2,10.5-31.6,13.5
		c-10.4,3-23.8,4.5-40.2,4.5C812.4,315.4,786.3,305.9,767.6,286.9z M898.2,189.5c-0.8-13.4-4.3-24.6-10.5-33.6S874,140.3,864.9,136
		c-9-4.2-18.2-6.4-27.5-6.4s-18.5,2.1-27.5,6.4c-9,4.2-16.5,10.9-22.6,19.9c-6,9-9.4,20.2-10.3,33.6H898.2z"/>
	<path class="st1" d="M996.6,261.3V134.1h-29.1c-2.2,0-4-0.7-5.5-2.3c-1.5-1.5-2.3-3.3-2.3-5.5c0-2.7,1.2-5.1,3.7-7l55.8-54.5
		c2.5-2.5,4.8-3.7,7-3.7s4,0.8,5.5,2.5c1.5,1.6,2.3,3.6,2.3,5.7v32.8h46.3c4.6,0,8.5,1.5,11.5,4.5s4.5,6.8,4.5,11.5
		c0,4.4-1.5,8.1-4.5,11.3c-3,3.1-6.8,4.7-11.5,4.7H1034V258c0,10.7,2.5,17.4,7.6,20.3s11.4,4.3,19.1,4.3c5.5,0,10.9-0.8,16.4-2.5
		c1.1-0.3,2.3-0.5,3.5-0.8s2.8-0.4,4.7-0.4c3.8,0,7.2,1.4,10.3,4.3c3,2.9,4.5,6.4,4.5,10.5c0,6.3-3.1,11.1-9.4,14.4
		c-10.7,4.9-22,7.4-34,7.4C1016.6,315.4,996.6,297.4,996.6,261.3z"/>
	<path class="st1" d="M197.8,218.9c-1.6,10.6-5,19.9-10.3,28c-7.5,11.5-17.4,20.1-29.7,25.8c-11.2,5.2-23.2,8.1-35.8,8.5v34
		c18.1-0.5,35.7-4.5,52.6-12.2c18-8.2,32.8-20.7,44.3-37.5c9-13.2,14.5-28.8,16.4-46.7h-37.5V218.9z"/>
	<path class="st1" d="M454.5,239c-1.5,4.6-3.4,8.9-5.7,12.8c-6.7,11.2-15.2,19.4-25.4,24.6c-10.3,5.2-21,7.8-32.2,7.8
		c-4.2,0-8.3-0.4-12.3-1c-9.4,9.4-18.9,18.9-28.3,28.3c12.3,4.5,25.8,6.8,40.7,6.8c20.8,0,39.1-4.5,55-13.5s28.2-21.8,36.9-38.3
		c4.5-8.5,7.8-17.6,10-27.3h-38.7V239z"/>
	<path class="st1" d="M350.5,311.4c0,0-38.1-12-55.7-54.4c0,0-15.1-57.9-73.8,5.3c0,0,8.6-35,14.3-43.4
		c15.6-23.2,79.2-33.5,90.2,12.3s53.3,51.9,53.3,51.9"/>
</g>
</svg>
